<?xml version="1.0" encoding="UTF-8"?>
<svg height="128px" viewBox="0 0 128 128" width="128px" xmlns="http://www.w3.org/2000/svg" xmlns:xlink="http://www.w3.org/1999/xlink">
    <linearGradient id="a" gradientUnits="userSpaceOnUse">
        <stop offset="0" stop-color="#e0e0e0" stop-opacity="0.6"/>
        <stop offset="1" stop-color="#b3b3b3" stop-opacity="0"/>
    </linearGradient>
    <radialGradient id="b" cx="0" cy="0" gradientTransform="matrix(30.851956 0 0 -4.115878 97.124331 123.977101)" r="1" xlink:href="#a"/>
    <radialGradient id="c" cx="0" cy="0" gradientTransform="matrix(-30.851956 0 0 -4.115878 31.306825 123.977101)" r="1" xlink:href="#a"/>
    <linearGradient id="d" gradientTransform="matrix(0 8.574746 -9.255587 0 64.215578 119.518229)" gradientUnits="userSpaceOnUse" x1="0" x2="1" y1="0" y2="0">
        <stop offset="0" stop-color="#ffffff" stop-opacity="0"/>
        <stop offset="0.5" stop-color="#e0e0e0" stop-opacity="0.6"/>
        <stop offset="1" stop-color="#b3b3b3" stop-opacity="0"/>
    </linearGradient>
    <linearGradient id="e" gradientTransform="matrix(0 119.019905 -119.020238 0 64.069205 4.8215)" gradientUnits="userSpaceOnUse" x1="0" x2="1" y1="0" y2="0">
        <stop offset="0" stop-color="#f0f2eb"/>
        <stop offset="0.64" stop-color="#ecefe6"/>
        <stop offset="0.84" stop-color="#e3e7d9"/>
        <stop offset="1" stop-color="#d8ddcb"/>
    </linearGradient>
    <linearGradient id="f" gradientTransform="matrix(0 495.536011 -495.536011 0 658.929016 200)" gradientUnits="userSpaceOnUse" x1="0" x2="1" y1="0" y2="0">
        <stop offset="0" stop-color="#a9aaa8" stop-opacity="0.6"/>
        <stop offset="1" stop-color="#979797" stop-opacity="0.6"/>
    </linearGradient>
    <clipPath id="g">
        <rect height="128" width="128"/>
    </clipPath>
    <clipPath id="h">
        <rect height="128" width="128"/>
    </clipPath>
    <filter id="i" height="100%" width="100%" x="0%" y="0%">
        <feColorMatrix in="SourceGraphic" type="matrix" values="0 0 0 0 1 0 0 0 0 1 0 0 0 0 1 0 0 0 1 0"/>
    </filter>
    <mask id="j">
        <g clip-path="url(#h)" filter="url(#i)">
            <g clip-path="url(#g)">
                <path d="m 127.976562 119.519531 h -30.851562 v 8.574219 h 30.851562 z m 0 0" fill="url(#b)" fill-rule="evenodd"/>
                <path d="m 0.453125 119.519531 h 30.855469 v 8.574219 h -30.855469 z m 0 0" fill="url(#c)" fill-rule="evenodd"/>
                <path d="m 31.308594 119.519531 h 65.816406 v 8.574219 h -65.816406 z m 0 0" fill="url(#d)" fill-rule="evenodd"/>
                <path d="m 124.589844 17.710938 c 0 -7.113282 -5.777344 -12.890626 -12.890625 -12.890626 h -93.238281 c -7.117188 0 -12.890626 5.777344 -12.890626 12.890626 v 93.238281 c 0 7.117187 5.773438 12.890625 12.890626 12.890625 h 93.238281 c 7.113281 0 12.890625 -5.773438 12.890625 -12.890625 z m 0 0" fill="url(#e)" fill-rule="evenodd"/>
                <path d="m 900.001649 254.15558 c 0.364273 -30.317544 -23.843325 -54.641123 -54.160776 -54.160943 h -391.692848 c -30.78107 -0.215253 -55.021784 24.042094 -54.144218 54.160943 v 391.694063 c -1.324629 30.466566 22.88297 54.757029 54.144218 54.144386 h 391.692848 c 30.483029 0 54.889322 -24.257347 54.160776 -54.144386 z m 0 0" fill="none" stroke="#c2cbae" stroke-linecap="round" stroke-linejoin="round" stroke-miterlimit="1.5" stroke-opacity="0.6" stroke-width="4.5" transform="matrix(0.235915 0 0 0.235914 -88.265368 -41.830042)"/>
                <path d="m 900.001139 254.148243 c 0 -29.882738 -24.270426 -54.153232 -54.15308 -54.153232 h -391.69087 c -29.899064 0 -54.15308 24.270494 -54.15308 54.153232 v 391.691965 c 0 29.899148 24.254016 54.153232 54.15308 54.153232 h 391.69087 c 29.882654 0 54.15308 -24.254084 54.15308 -54.153232 z m 0 0" fill="none" stroke="url(#f)" stroke-linecap="round" stroke-linejoin="round" stroke-miterlimit="1.5" stroke-width="4.46" transform="matrix(0.23804 0 0 0.23804 -89.646856 -42.786462)"/>
                <path d="m 69.53125 91.457031 c 0.292969 1.386719 1.3125 2.25 3.058594 2.597657 c 0.4375 0.085937 0.65625 0.347656 0.65625 0.863281 c 0 0.261719 -0.148438 0.519531 -0.367188 0.78125 c -0.214844 0.257812 -0.582031 0.34375 -0.945312 0.34375 c -0.726563 0 -1.675782 -0.085938 -2.910156 -0.171875 c -1.238282 -0.085938 -2.914063 -0.171875 -5.171876 -0.171875 c -1.820312 0 -3.351562 0.085937 -4.734374 0.257812 c -1.382813 0.085938 -2.183594 0.175781 -2.476563 0.261719 c -0.214844 0 -0.433594 -0.085938 -0.507813 -0.261719 c -0.074218 -0.171875 -0.144531 -0.34375 -0.144531 -0.605469 c 0 -0.257812 0.070313 -0.433593 0.144531 -0.691406 c 0 -0.257812 0.144532 -0.347656 0.292969 -0.347656 c 0.363281 -0.085938 0.652344 -0.171875 1.019531 -0.34375 c 0.363282 -0.171875 0.652344 -0.433594 0.945313 -0.691406 c 0.144531 -0.175782 0.363281 -1.125 0.582031 -2.769532 c 0.21875 -1.644531 0.363282 -3.894531 0.582032 -6.664062 c 0.144531 -2.679688 0.292968 -5.882812 0.4375 -9.429688 c 0.074218 -3.546874 0.144531 -7.355468 0.144531 -11.332031 v -9.34375 c 0 -2.855469 -0.144531 -5.191406 -0.363281 -7.011719 c -0.4375 -3.804687 -1.457032 -6.746093 -3.058594 -8.824218 c -1.601563 -1.988282 -3.496094 -3.027344 -5.605469 -3.027344 c -1.894531 0 -3.789063 0.605469 -5.609375 1.816406 c -1.820312 1.296875 -3.492188 3.117188 -4.949219 5.453125 c -1.457031 2.421875 -2.621093 5.449219 -3.496093 8.910157 c -0.945313 3.632812 -1.382813 7.613281 -1.382813 12.199218 c 0 5.019532 0.507813 9.34375 1.457031 13.0625 c 0.945313 3.722656 2.183594 6.835938 3.710938 9.347656 c 1.53125 2.507813 3.351562 4.410157 5.390625 5.621094 c 1.964843 1.296875 4.078125 1.902344 6.261719 1.902344 h 0.4375 c 0.144531 0 0.289062 0 0.363281 -0.085938 c 0.21875 -0.085937 0.292969 -0.085937 0.363281 0 c 0.074219 0.085938 0.074219 0.261719 0 0.433594 c -0.070312 0.261719 -0.070312 0.433594 -0.144531 0.605469 c -0.074219 0.261719 -0.21875 0.347656 -0.292969 0.433594 c -0.507812 0.433593 -1.164062 0.777343 -2.039062 1.039062 c -0.871094 0.34375 -2.109376 0.519531 -3.640626 0.519531 c -2.546874 0 -5.097656 -0.695312 -7.644531 -2.164062 c -2.546875 -1.386719 -4.878906 -3.375 -6.84375 -5.882812 c -2.039062 -2.511719 -3.640625 -5.625 -4.878906 -9.257813 c -1.238281 -3.546875 -1.894531 -7.527344 -1.894531 -11.855469 c 0 -6.140625 0.726562 -11.417968 2.257812 -15.832031 c 1.527344 -4.414063 3.566406 -7.960937 6.1875 -10.726563 c 2.550782 -2.769531 5.609375 -4.847656 9.03125 -6.144531 c 3.421875 -1.210937 7.0625 -1.902343 10.921875 -1.902343 c 1.382813 0 2.695313 0.171874 3.859375 0.519531 c 1.164063 0.34375 2.183594 0.777343 3.058594 1.210937 c 0.875 0.519532 1.601562 1.035156 2.183594 1.46875 c 0.511718 0.433594 0.875 0.78125 1.09375 1.039063 c 0.363281 -0.347657 1.164062 -0.777344 2.402344 -1.296875 c 1.164062 -0.433594 2.476562 -0.867188 4.078124 -1.386719 c 1.527344 -0.429687 3.058594 -0.777344 4.734376 -1.125 c 1.671874 -0.257813 3.128906 -0.429687 4.511718 -0.429687 c 3.714844 0.085937 6.917969 0.863281 9.757813 2.160156 c 2.769531 1.300781 5.097656 3.117187 6.992187 5.28125 c 1.820313 2.246094 3.277344 4.84375 4.222656 7.699218 c 0.945313 2.941407 1.382813 6.054688 1.382813 9.34375 c 0 6.140626 -0.726563 11.679688 -2.039063 16.4375 c -1.382812 4.847657 -3.273437 8.914063 -5.605468 12.285157 c -2.332032 3.375 -5.023438 5.882812 -8.082032 7.613281 c -3.058593 1.820312 -6.261718 2.683594 -9.613281 2.683594 c -0.289062 0 -0.507812 -0.085938 -0.582031 -0.433594 c -0.074219 -0.257812 -0.144531 -0.519531 -0.074219 -0.777344 c 0 -0.257812 0.074219 -0.519531 0.21875 -0.777344 c 0.148438 -0.175781 0.292969 -0.261718 0.4375 -0.175781 c 0.21875 0.089844 0.4375 0.175781 0.582031 0.175781 h 0.582032 c 1.96875 0 3.859375 -0.78125 5.609375 -2.425781 c 1.746093 -1.640625 3.277343 -3.804687 4.585937 -6.746093 c 1.3125 -2.855469 2.332032 -6.144532 3.132813 -10.125 c 0.726562 -3.890626 1.089843 -8.132813 1.089843 -12.714844 c 0 -8.566406 -1.089843 -15.316406 -3.273437 -20.074219 c -2.257813 -4.757813 -5.679687 -7.179687 -10.269531 -7.179687 c -1.382813 0 -2.695313 0.34375 -3.933594 1.035156 c -1.234375 0.695312 -2.253906 1.558594 -3.128906 2.683594 c -0.945313 1.125 -1.675782 2.421874 -2.183594 3.894531 c -0.582031 1.46875 -0.949219 2.941406 -1.09375 4.410156 c -0.21875 1.992187 -0.363281 5.277344 -0.4375 9.691406 c -0.070312 4.414063 -0.070312 9.777344 -0.144531 16.09375 c -0.074219 4.585938 0 8.652344 0.144531 12.023438 c 0.074219 3.460937 0.292969 5.796875 0.65625 7.007812 z m 0 0" fill="#ed5353"/>
                <path d="m 69.53125 91.457031 c 0.292969 1.386719 1.3125 2.25 3.058594 2.597657 c 0.4375 0.085937 0.65625 0.347656 0.65625 0.863281 c 0 0.261719 -0.148438 0.519531 -0.367188 0.78125 c -0.214844 0.257812 -0.582031 0.34375 -0.945312 0.34375 c -0.726563 0 -1.675782 -0.085938 -2.910156 -0.171875 c -1.238282 -0.085938 -2.914063 -0.171875 -5.171876 -0.171875 c -1.820312 0 -3.351562 0.085937 -4.734374 0.257812 c -1.382813 0.085938 -2.183594 0.175781 -2.476563 0.261719 c -0.214844 0 -0.433594 -0.085938 -0.507813 -0.261719 c -0.074218 -0.171875 -0.144531 -0.34375 -0.144531 -0.605469 c 0 -0.257812 0.070313 -0.433593 0.144531 -0.691406 c 0 -0.257812 0.144532 -0.347656 0.292969 -0.347656 c 0.363281 -0.085938 0.652344 -0.171875 1.019531 -0.34375 c 0.363282 -0.171875 0.652344 -0.433594 0.945313 -0.691406 c 0.144531 -0.175782 0.363281 -1.125 0.582031 -2.769532 c 0.21875 -1.644531 0.363282 -3.894531 0.582032 -6.664062 c 0.144531 -2.679688 0.292968 -5.882812 0.4375 -9.429688 c 0.074218 -3.546874 0.144531 -7.355468 0.144531 -11.332031 v -9.34375 c 0 -2.855469 -0.144531 -5.191406 -0.363281 -7.011719 c -0.4375 -3.804687 -1.457032 -6.746093 -3.058594 -8.824218 c -1.601563 -1.988282 -3.496094 -3.027344 -5.605469 -3.027344 c -1.894531 0 -3.789063 0.605469 -5.609375 1.816406 c -1.820312 1.296875 -3.492188 3.117188 -4.949219 5.453125 c -1.457031 2.421875 -2.621093 5.449219 -3.496093 8.910157 c -0.945313 3.632812 -1.382813 7.613281 -1.382813 12.199218 c 0 5.019532 0.507813 9.34375 1.457031 13.0625 c 0.945313 3.722656 2.183594 6.835938 3.710938 9.347656 c 1.53125 2.507813 3.351562 4.410157 5.390625 5.621094 c 1.964843 1.296875 4.078125 1.902344 6.261719 1.902344 h 0.4375 c 0.144531 0 0.289062 0 0.363281 -0.085938 c 0.21875 -0.085937 0.292969 -0.085937 0.363281 0 c 0.074219 0.085938 0.074219 0.261719 0 0.433594 c -0.070312 0.261719 -0.070312 0.433594 -0.144531 0.605469 c -0.074219 0.261719 -0.21875 0.347656 -0.292969 0.433594 c -0.507812 0.433593 -1.164062 0.777343 -2.039062 1.039062 c -0.871094 0.34375 -2.109376 0.519531 -3.640626 0.519531 c -2.546874 0 -5.097656 -0.695312 -7.644531 -2.164062 c -2.546875 -1.386719 -4.878906 -3.375 -6.84375 -5.882812 c -2.039062 -2.511719 -3.640625 -5.625 -4.878906 -9.257813 c -1.238281 -3.546875 -1.894531 -7.527344 -1.894531 -11.855469 c 0 -6.140625 0.726562 -11.417968 2.257812 -15.832031 c 1.527344 -4.414063 3.566406 -7.960937 6.1875 -10.726563 c 2.550782 -2.769531 5.609375 -4.847656 9.03125 -6.144531 c 3.421875 -1.210937 7.0625 -1.902343 10.921875 -1.902343 c 1.382813 0 2.695313 0.171874 3.859375 0.519531 c 1.164063 0.34375 2.183594 0.777343 3.058594 1.210937 c 0.875 0.519532 1.601562 1.035156 2.183594 1.46875 c 0.511718 0.433594 0.875 0.78125 1.09375 1.039063 c 0.363281 -0.347657 1.164062 -0.777344 2.402344 -1.296875 c 1.164062 -0.433594 2.476562 -0.867188 4.078124 -1.386719 c 1.527344 -0.429687 3.058594 -0.777344 4.734376 -1.125 c 1.671874 -0.257813 3.128906 -0.429687 4.511718 -0.429687 c 3.714844 0.085937 6.917969 0.863281 9.757813 2.160156 c 2.769531 1.300781 5.097656 3.117187 6.992187 5.28125 c 1.820313 2.246094 3.277344 4.84375 4.222656 7.699218 c 0.945313 2.941407 1.382813 6.054688 1.382813 9.34375 c 0 6.140626 -0.726563 11.679688 -2.039063 16.4375 c -1.382812 4.847657 -3.273437 8.914063 -5.605468 12.285157 c -2.332032 3.375 -5.023438 5.882812 -8.082032 7.613281 c -3.058593 1.820312 -6.261718 2.683594 -9.613281 2.683594 c -0.289062 0 -0.507812 -0.085938 -0.582031 -0.433594 c -0.074219 -0.257812 -0.144531 -0.519531 -0.074219 -0.777344 c 0 -0.257812 0.074219 -0.519531 0.21875 -0.777344 c 0.148438 -0.175781 0.292969 -0.261718 0.4375 -0.175781 c 0.21875 0.089844 0.4375 0.175781 0.582031 0.175781 h 0.582032 c 1.96875 0 3.859375 -0.78125 5.609375 -2.425781 c 1.746093 -1.640625 3.277343 -3.804687 4.585937 -6.746093 c 1.3125 -2.855469 2.332032 -6.144532 3.132813 -10.125 c 0.726562 -3.890626 1.089843 -8.132813 1.089843 -12.714844 c 0 -8.566406 -1.089843 -15.316406 -3.273437 -20.074219 c -2.257813 -4.757813 -5.679687 -7.179687 -10.269531 -7.179687 c -1.382813 0 -2.695313 0.34375 -3.933594 1.035156 c -1.234375 0.695312 -2.253906 1.558594 -3.128906 2.683594 c -0.945313 1.125 -1.675782 2.421874 -2.183594 3.894531 c -0.582031 1.46875 -0.949219 2.941406 -1.09375 4.410156 c -0.21875 1.992187 -0.363281 5.277344 -0.4375 9.691406 c -0.070312 4.414063 -0.070312 9.777344 -0.144531 16.09375 c -0.074219 4.585938 0 8.652344 0.144531 12.023438 c 0.074219 3.460937 0.292969 5.796875 0.65625 7.007812 z m 0 0" fill="#ed5353"/>
            </g>
        </g>
    </mask>
    <mask id="k">
        <g filter="url(#i)">
            <rect fill-opacity="0.8" height="128" width="128"/>
        </g>
    </mask>
    <linearGradient id="l" gradientTransform="matrix(0 0.37 -0.98462 0 295.38501 -30.360001)" gradientUnits="userSpaceOnUse" x1="300" x2="428" y1="235" y2="235">
        <stop offset="0" stop-color="#f9f06b"/>
        <stop offset="1" stop-color="#f5c211"/>
    </linearGradient>
    <clipPath id="m">
        <rect height="128" width="128"/>
    </clipPath>
    <clipPath id="n">
        <rect height="128" width="128"/>
    </clipPath>
    <g fill-rule="evenodd">
        <path d="m 127.976562 119.519531 h -30.851562 v 8.574219 h 30.851562 z m 0 0" fill="url(#b)"/>
        <path d="m 0.453125 119.519531 h 30.855469 v 8.574219 h -30.855469 z m 0 0" fill="url(#c)"/>
        <path d="m 31.308594 119.519531 h 65.816406 v 8.574219 h -65.816406 z m 0 0" fill="url(#d)"/>
        <path d="m 124.589844 17.710938 c 0 -7.113282 -5.777344 -12.890626 -12.890625 -12.890626 h -93.238281 c -7.117188 0 -12.890626 5.777344 -12.890626 12.890626 v 93.238281 c 0 7.117187 5.773438 12.890625 12.890626 12.890625 h 93.238281 c 7.113281 0 12.890625 -5.773438 12.890625 -12.890625 z m 0 0" fill="url(#e)"/>
    </g>
    <path d="m 900.001649 254.15558 c 0.364273 -30.317544 -23.843325 -54.641123 -54.160776 -54.160943 h -391.692848 c -30.78107 -0.215253 -55.021784 24.042094 -54.144218 54.160943 v 391.694063 c -1.324629 30.466566 22.88297 54.757029 54.144218 54.144386 h 391.692848 c 30.483029 0 54.889322 -24.257347 54.160776 -54.144386 z m 0 0" fill="none" stroke="#c2cbae" stroke-linecap="round" stroke-linejoin="round" stroke-miterlimit="1.5" stroke-opacity="0.6" stroke-width="4.5" transform="matrix(0.235915 0 0 0.235914 -88.265368 -41.830042)"/>
    <path d="m 900.001139 254.148243 c 0 -29.882738 -24.270426 -54.153232 -54.15308 -54.153232 h -391.69087 c -29.899064 0 -54.15308 24.270494 -54.15308 54.153232 v 391.691965 c 0 29.899148 24.254016 54.153232 54.15308 54.153232 h 391.69087 c 29.882654 0 54.15308 -24.254084 54.15308 -54.153232 z m 0 0" fill="none" stroke="url(#f)" stroke-linecap="round" stroke-linejoin="round" stroke-miterlimit="1.5" stroke-width="4.46" transform="matrix(0.23804 0 0 0.23804 -89.646856 -42.786462)"/>
    <path d="m 69.53125 91.457031 c 0.292969 1.386719 1.3125 2.25 3.058594 2.597657 c 0.4375 0.085937 0.65625 0.347656 0.65625 0.863281 c 0 0.261719 -0.148438 0.519531 -0.367188 0.78125 c -0.214844 0.257812 -0.582031 0.34375 -0.945312 0.34375 c -0.726563 0 -1.675782 -0.085938 -2.910156 -0.171875 c -1.238282 -0.085938 -2.914063 -0.171875 -5.171876 -0.171875 c -1.820312 0 -3.351562 0.085937 -4.734374 0.257812 c -1.382813 0.085938 -2.183594 0.175781 -2.476563 0.261719 c -0.214844 0 -0.433594 -0.085938 -0.507813 -0.261719 c -0.074218 -0.171875 -0.144531 -0.34375 -0.144531 -0.605469 c 0 -0.257812 0.070313 -0.433593 0.144531 -0.691406 c 0 -0.257812 0.144532 -0.347656 0.292969 -0.347656 c 0.363281 -0.085938 0.652344 -0.171875 1.019531 -0.34375 c 0.363282 -0.171875 0.652344 -0.433594 0.945313 -0.691406 c 0.144531 -0.175782 0.363281 -1.125 0.582031 -2.769532 c 0.21875 -1.644531 0.363282 -3.894531 0.582032 -6.664062 c 0.144531 -2.679688 0.292968 -5.882812 0.4375 -9.429688 c 0.074218 -3.546874 0.144531 -7.355468 0.144531 -11.332031 v -9.34375 c 0 -2.855469 -0.144531 -5.191406 -0.363281 -7.011719 c -0.4375 -3.804687 -1.457032 -6.746093 -3.058594 -8.824218 c -1.601563 -1.988282 -3.496094 -3.027344 -5.605469 -3.027344 c -1.894531 0 -3.789063 0.605469 -5.609375 1.816406 c -1.820312 1.296875 -3.492188 3.117188 -4.949219 5.453125 c -1.457031 2.421875 -2.621093 5.449219 -3.496093 8.910157 c -0.945313 3.632812 -1.382813 7.613281 -1.382813 12.199218 c 0 5.019532 0.507813 9.34375 1.457031 13.0625 c 0.945313 3.722656 2.183594 6.835938 3.710938 9.347656 c 1.53125 2.507813 3.351562 4.410157 5.390625 5.621094 c 1.964843 1.296875 4.078125 1.902344 6.261719 1.902344 h 0.4375 c 0.144531 0 0.289062 0 0.363281 -0.085938 c 0.21875 -0.085937 0.292969 -0.085937 0.363281 0 c 0.074219 0.085938 0.074219 0.261719 0 0.433594 c -0.070312 0.261719 -0.070312 0.433594 -0.144531 0.605469 c -0.074219 0.261719 -0.21875 0.347656 -0.292969 0.433594 c -0.507812 0.433593 -1.164062 0.777343 -2.039062 1.039062 c -0.871094 0.34375 -2.109376 0.519531 -3.640626 0.519531 c -2.546874 0 -5.097656 -0.695312 -7.644531 -2.164062 c -2.546875 -1.386719 -4.878906 -3.375 -6.84375 -5.882812 c -2.039062 -2.511719 -3.640625 -5.625 -4.878906 -9.257813 c -1.238281 -3.546875 -1.894531 -7.527344 -1.894531 -11.855469 c 0 -6.140625 0.726562 -11.417968 2.257812 -15.832031 c 1.527344 -4.414063 3.566406 -7.960937 6.1875 -10.726563 c 2.550782 -2.769531 5.609375 -4.847656 9.03125 -6.144531 c 3.421875 -1.210937 7.0625 -1.902343 10.921875 -1.902343 c 1.382813 0 2.695313 0.171874 3.859375 0.519531 c 1.164063 0.34375 2.183594 0.777343 3.058594 1.210937 c 0.875 0.519532 1.601562 1.035156 2.183594 1.46875 c 0.511718 0.433594 0.875 0.78125 1.09375 1.039063 c 0.363281 -0.347657 1.164062 -0.777344 2.402344 -1.296875 c 1.164062 -0.433594 2.476562 -0.867188 4.078124 -1.386719 c 1.527344 -0.429687 3.058594 -0.777344 4.734376 -1.125 c 1.671874 -0.257813 3.128906 -0.429687 4.511718 -0.429687 c 3.714844 0.085937 6.917969 0.863281 9.757813 2.160156 c 2.769531 1.300781 5.097656 3.117187 6.992187 5.28125 c 1.820313 2.246094 3.277344 4.84375 4.222656 7.699218 c 0.945313 2.941407 1.382813 6.054688 1.382813 9.34375 c 0 6.140626 -0.726563 11.679688 -2.039063 16.4375 c -1.382812 4.847657 -3.273437 8.914063 -5.605468 12.285157 c -2.332032 3.375 -5.023438 5.882812 -8.082032 7.613281 c -3.058593 1.820312 -6.261718 2.683594 -9.613281 2.683594 c -0.289062 0 -0.507812 -0.085938 -0.582031 -0.433594 c -0.074219 -0.257812 -0.144531 -0.519531 -0.074219 -0.777344 c 0 -0.257812 0.074219 -0.519531 0.21875 -0.777344 c 0.148438 -0.175781 0.292969 -0.261718 0.4375 -0.175781 c 0.21875 0.089844 0.4375 0.175781 0.582031 0.175781 h 0.582032 c 1.96875 0 3.859375 -0.78125 5.609375 -2.425781 c 1.746093 -1.640625 3.277343 -3.804687 4.585937 -6.746093 c 1.3125 -2.855469 2.332032 -6.144532 3.132813 -10.125 c 0.726562 -3.890626 1.089843 -8.132813 1.089843 -12.714844 c 0 -8.566406 -1.089843 -15.316406 -3.273437 -20.074219 c -2.257813 -4.757813 -5.679687 -7.179687 -10.269531 -7.179687 c -1.382813 0 -2.695313 0.34375 -3.933594 1.035156 c -1.234375 0.695312 -2.253906 1.558594 -3.128906 2.683594 c -0.945313 1.125 -1.675782 2.421874 -2.183594 3.894531 c -0.582031 1.46875 -0.949219 2.941406 -1.09375 4.410156 c -0.21875 1.992187 -0.363281 5.277344 -0.4375 9.691406 c -0.070312 4.414063 -0.070312 9.777344 -0.144531 16.09375 c -0.074219 4.585938 0 8.652344 0.144531 12.023438 c 0.074219 3.460937 0.292969 5.796875 0.65625 7.007812 z m 0 0" fill="#ed5353"/>
    <path d="m 69.53125 91.457031 c 0.292969 1.386719 1.3125 2.25 3.058594 2.597657 c 0.4375 0.085937 0.65625 0.347656 0.65625 0.863281 c 0 0.261719 -0.148438 0.519531 -0.367188 0.78125 c -0.214844 0.257812 -0.582031 0.34375 -0.945312 0.34375 c -0.726563 0 -1.675782 -0.085938 -2.910156 -0.171875 c -1.238282 -0.085938 -2.914063 -0.171875 -5.171876 -0.171875 c -1.820312 0 -3.351562 0.085937 -4.734374 0.257812 c -1.382813 0.085938 -2.183594 0.175781 -2.476563 0.261719 c -0.214844 0 -0.433594 -0.085938 -0.507813 -0.261719 c -0.074218 -0.171875 -0.144531 -0.34375 -0.144531 -0.605469 c 0 -0.257812 0.070313 -0.433593 0.144531 -0.691406 c 0 -0.257812 0.144532 -0.347656 0.292969 -0.347656 c 0.363281 -0.085938 0.652344 -0.171875 1.019531 -0.34375 c 0.363282 -0.171875 0.652344 -0.433594 0.945313 -0.691406 c 0.144531 -0.175782 0.363281 -1.125 0.582031 -2.769532 c 0.21875 -1.644531 0.363282 -3.894531 0.582032 -6.664062 c 0.144531 -2.679688 0.292968 -5.882812 0.4375 -9.429688 c 0.074218 -3.546874 0.144531 -7.355468 0.144531 -11.332031 v -9.34375 c 0 -2.855469 -0.144531 -5.191406 -0.363281 -7.011719 c -0.4375 -3.804687 -1.457032 -6.746093 -3.058594 -8.824218 c -1.601563 -1.988282 -3.496094 -3.027344 -5.605469 -3.027344 c -1.894531 0 -3.789063 0.605469 -5.609375 1.816406 c -1.820312 1.296875 -3.492188 3.117188 -4.949219 5.453125 c -1.457031 2.421875 -2.621093 5.449219 -3.496093 8.910157 c -0.945313 3.632812 -1.382813 7.613281 -1.382813 12.199218 c 0 5.019532 0.507813 9.34375 1.457031 13.0625 c 0.945313 3.722656 2.183594 6.835938 3.710938 9.347656 c 1.53125 2.507813 3.351562 4.410157 5.390625 5.621094 c 1.964843 1.296875 4.078125 1.902344 6.261719 1.902344 h 0.4375 c 0.144531 0 0.289062 0 0.363281 -0.085938 c 0.21875 -0.085937 0.292969 -0.085937 0.363281 0 c 0.074219 0.085938 0.074219 0.261719 0 0.433594 c -0.070312 0.261719 -0.070312 0.433594 -0.144531 0.605469 c -0.074219 0.261719 -0.21875 0.347656 -0.292969 0.433594 c -0.507812 0.433593 -1.164062 0.777343 -2.039062 1.039062 c -0.871094 0.34375 -2.109376 0.519531 -3.640626 0.519531 c -2.546874 0 -5.097656 -0.695312 -7.644531 -2.164062 c -2.546875 -1.386719 -4.878906 -3.375 -6.84375 -5.882812 c -2.039062 -2.511719 -3.640625 -5.625 -4.878906 -9.257813 c -1.238281 -3.546875 -1.894531 -7.527344 -1.894531 -11.855469 c 0 -6.140625 0.726562 -11.417968 2.257812 -15.832031 c 1.527344 -4.414063 3.566406 -7.960937 6.1875 -10.726563 c 2.550782 -2.769531 5.609375 -4.847656 9.03125 -6.144531 c 3.421875 -1.210937 7.0625 -1.902343 10.921875 -1.902343 c 1.382813 0 2.695313 0.171874 3.859375 0.519531 c 1.164063 0.34375 2.183594 0.777343 3.058594 1.210937 c 0.875 0.519532 1.601562 1.035156 2.183594 1.46875 c 0.511718 0.433594 0.875 0.78125 1.09375 1.039063 c 0.363281 -0.347657 1.164062 -0.777344 2.402344 -1.296875 c 1.164062 -0.433594 2.476562 -0.867188 4.078124 -1.386719 c 1.527344 -0.429687 3.058594 -0.777344 4.734376 -1.125 c 1.671874 -0.257813 3.128906 -0.429687 4.511718 -0.429687 c 3.714844 0.085937 6.917969 0.863281 9.757813 2.160156 c 2.769531 1.300781 5.097656 3.117187 6.992187 5.28125 c 1.820313 2.246094 3.277344 4.84375 4.222656 7.699218 c 0.945313 2.941407 1.382813 6.054688 1.382813 9.34375 c 0 6.140626 -0.726563 11.679688 -2.039063 16.4375 c -1.382812 4.847657 -3.273437 8.914063 -5.605468 12.285157 c -2.332032 3.375 -5.023438 5.882812 -8.082032 7.613281 c -3.058593 1.820312 -6.261718 2.683594 -9.613281 2.683594 c -0.289062 0 -0.507812 -0.085938 -0.582031 -0.433594 c -0.074219 -0.257812 -0.144531 -0.519531 -0.074219 -0.777344 c 0 -0.257812 0.074219 -0.519531 0.21875 -0.777344 c 0.148438 -0.175781 0.292969 -0.261718 0.4375 -0.175781 c 0.21875 0.089844 0.4375 0.175781 0.582031 0.175781 h 0.582032 c 1.96875 0 3.859375 -0.78125 5.609375 -2.425781 c 1.746093 -1.640625 3.277343 -3.804687 4.585937 -6.746093 c 1.3125 -2.855469 2.332032 -6.144532 3.132813 -10.125 c 0.726562 -3.890626 1.089843 -8.132813 1.089843 -12.714844 c 0 -8.566406 -1.089843 -15.316406 -3.273437 -20.074219 c -2.257813 -4.757813 -5.679687 -7.179687 -10.269531 -7.179687 c -1.382813 0 -2.695313 0.34375 -3.933594 1.035156 c -1.234375 0.695312 -2.253906 1.558594 -3.128906 2.683594 c -0.945313 1.125 -1.675782 2.421874 -2.183594 3.894531 c -0.582031 1.46875 -0.949219 2.941406 -1.09375 4.410156 c -0.21875 1.992187 -0.363281 5.277344 -0.4375 9.691406 c -0.070312 4.414063 -0.070312 9.777344 -0.144531 16.09375 c -0.074219 4.585938 0 8.652344 0.144531 12.023438 c 0.074219 3.460937 0.292969 5.796875 0.65625 7.007812 z m 0 0" fill="#ed5353"/>
    <g clip-path="url(#n)" mask="url(#j)">
        <g clip-path="url(#m)" mask="url(#k)">
            <path d="m 128 80.640625 v 47.359375 h -128 v -47.359375 z m 0 0" fill="url(#l)"/>
            <path d="m 13.308594 80.640625 l 47.355468 47.359375 h 21.214844 l -47.359375 -47.359375 z m 42.421875 0 l 47.363281 47.359375 h 21.214844 l -47.363282 -47.359375 z m 42.429687 0 l 29.839844 29.839844 v -21.210938 l -8.628906 -8.628906 z m -98.160156 7.90625 v 21.214844 l 18.238281 18.238281 h 21.214844 z m 0 0"/>
        </g>
    </g>
</svg>
